<?xml version="1.0" encoding="UTF-8"?>
<svg xmlns="http://www.w3.org/2000/svg" width="512" height="512"
     viewBox="0 0 512 512">
    <path fill-rule="nonzero" fill="rgb(2.352941%, 29.803922%, 36.078431%)" fill-opacity="1"
          d="M 89.148438 0.0273438 L 422.863281 0.0273438 C 472.09375 0.0273438 512.003906 39.9375 512.003906 89.167969 L 512.003906 422.882812 C 512.003906 472.113281 472.09375 512.019531 422.863281 512.019531 L 89.148438 512.019531 C 39.921875 512.019531 0.0117188 472.113281 0.0117188 422.882812 L 0.0117188 89.167969 C 0.0117188 39.9375 39.921875 0.0273438 89.148438 0.0273438 Z M 89.148438 0.0273438 "/>
    <path fill-rule="nonzero" fill="rgb(98.431373%, 80.784314%, 33.333333%)" fill-opacity="1"
          d="M 373.089844 170.71875 L 206.734375 248.296875 L 206.734375 367.457031 L 418.730469 268.601562 Z M 373.089844 170.71875 "/>
    <path fill-rule="nonzero" fill="rgb(27.45098%, 73.333333%, 83.921569%)" fill-opacity="1"
          d="M 206.734375 250.792969 L 206.734375 369.964844 L 383.203125 452.25 L 372.625 387.726562 L 428.839844 354.371094 Z M 206.734375 250.792969 "/>
    <path fill-rule="nonzero" fill="rgb(100%, 98.039216%, 93.72549%)" fill-opacity="1"
          d="M 98.734375 119.382812 L 206.734375 119.382812 L 206.734375 439.378906 L 98.734375 439.378906 Z M 98.734375 119.382812 "/>
    <path fill-rule="nonzero" fill="rgb(0%, 0%, 0%)" fill-opacity="0.313725"
          d="M 98.734375 119.378906 L 98.734375 126.277344 L 411.328125 272.050781 L 418.734375 268.597656 Z M 98.734375 119.378906 "/>
    <path fill-rule="nonzero" fill="rgb(27.45098%, 73.333333%, 83.921569%)" fill-opacity="1"
          d="M 206.734375 59.800781 L 98.734375 119.382812 L 418.730469 268.601562 L 418.730469 149.4375 Z M 206.734375 59.800781 "/>
</svg>
